<?xml version="1.0"?>
<svg xmlns="http://www.w3.org/2000/svg" height="70" viewBox="0 -31 511.99981 511" width="70px"><path d="m490.617188 240.492188h6.367187c8.285156 0 15-6.714844 15-15 0-8.28125-6.714844-15-15-15h-6.367187l19.691406-38.113282c5.148437-9.964844-2.09375-21.882812-13.324219-21.882812h-58.824219c-14.605468-41.175782-41.449218-77.96875-76.472656-104.484375-39.324219-29.773438-86.246094-45.511719-135.695312-45.511719-124.613282 0-225.992188 100.933594-225.992188 224.992188 0 124.0625 101.378906 224.992187 225.992188 224.992187 49.449218 0 96.371093-15.734375 135.695312-45.507813 35.023438-26.515624 61.867188-63.308593 76.472656-104.484374h58.824219c11.214844 0 18.480469-11.910157 13.324219-21.886719zm-33.765626-30h-56.59375l15-29.996094h57.09375zm-126.9375 0c-7.300781-50.8125-51.117187-89.996094-103.921874-89.996094-57.894532 0-104.996094 47.101562-104.996094 104.996094 0 57.894531 47.101562 104.996093 104.996094 104.996093 52.804687 0 96.621093-39.179687 103.921874-89.996093h30.238282c-7.488282 67.402343-64.792969 119.996093-134.160156 119.996093-74.4375 0-134.996094-60.558593-134.996094-134.996093s60.558594-134.996094 134.996094-134.996094c69.367187 0 126.671874 52.59375 134.160156 119.996094zm-61.503906 0c-6.191406-17.457032-22.863281-29.996094-42.417968-29.996094-24.8125 0-44.996094 20.183594-44.996094 44.996094s20.183594 45 44.996094 45c19.554687 0 36.226562-12.542969 42.417968-30h31.070313c-6.964844 34.191406-37.269531 60-73.488281 60-41.351563 0-74.996094-33.644532-74.996094-75 0-41.351563 33.644531-74.996094 74.996094-74.996094 36.21875 0 66.519531 25.804687 73.488281 59.996094zm-27.417968 15c0 8.269531-6.726563 15-15 15-8.269532 0-15-6.730469-15-15 0-8.269532 6.730468-15 15-15 8.273437 0 15 6.730468 15 15zm-15 194.996093c-108.070313 0-195.992188-87.476562-195.992188-194.996093 0-107.519532 87.921875-194.992188 195.992188-194.992188 78.765624 0 150.097656 48.433594 180.039062 119.996094h-.042969c-5.683593 0-10.875 3.210937-13.417969 8.289062l-8.953124 17.90625c-20.855469-67.230468-83.628907-116.195312-157.625-116.195312-90.976563 0-164.992188 74.019531-164.992188 164.996094 0 90.980468 74.015625 164.996093 164.992188 164.996093 73.996093 0 136.769531-48.964843 157.625-116.191406l8.953124 17.902344c2.542969 5.082031 7.734376 8.292969 13.417969 8.292969h.042969c-29.941406 71.558593-101.273438 119.996093-180.039062 119.996093zm189.265624-149.996093-15-30h56.59375l15.5 30zm0 0" fill="#FFFFFF"/></svg>
